<?xml version="1.0" encoding="iso-8859-1"?>
<!-- Generator: Adobe Illustrator 21.0.2, SVG Export Plug-In . SVG Version: 6.00 Build 0)  -->
<svg version="1.1" id="Layer_1" xmlns="http://www.w3.org/2000/svg" xmlns:xlink="http://www.w3.org/1999/xlink" x="0px" y="0px"
	 viewBox="0 0 100.75 100.749" style="enable-background:new 0 0 100.75 100.749;" xml:space="preserve">
<g>
	<path style="fill:#231F20;" d="M18.628,14.436h-4.135V7.218c0-0.829-0.671-1.5-1.5-1.5s-1.5,0.671-1.5,1.5v7.218H7.358
		c-0.829,0-1.5,0.671-1.5,1.5s0.671,1.5,1.5,1.5h4.135v76.397c0,0.829,0.671,1.5,1.5,1.5s1.5-0.671,1.5-1.5V17.436h4.135
		c0.829,0,1.5-0.671,1.5-1.5S19.456,14.436,18.628,14.436z"/>
	<path style="fill:#231F20;" d="M92.642,14.436h-4.135V7.218c0-0.829-0.671-1.5-1.5-1.5s-1.5,0.671-1.5,1.5v7.218h-4.135
		c-0.829,0-1.5,0.671-1.5,1.5s0.671,1.5,1.5,1.5h4.135v76.397c0,0.829,0.671,1.5,1.5,1.5s1.5-0.671,1.5-1.5V17.436h4.135
		c0.829,0,1.5-0.671,1.5-1.5S93.471,14.436,92.642,14.436z"/>
	<path style="fill:#231F20;" d="M58.239,53.109c0.116-0.123,0.218-0.262,0.29-0.426l14.838-34.312
		c0.197-0.456,0.367-0.849-0.459-10.095c-0.134-1.5-0.996-2.734-2.306-3.3c-1.31-0.568-2.799-0.349-3.984,0.581
		c-7.303,5.73-7.473,6.124-7.67,6.58l-9.213,21.306l-9.214-21.306c-0.197-0.456-0.367-0.849-7.67-6.579
		c-1.185-0.931-2.676-1.146-3.985-0.581c-1.31,0.566-2.171,1.801-2.305,3.301c-0.826,9.246-0.656,9.639-0.459,10.095l15.075,34.86
		L26.058,88.195c-0.329,0.76,0.021,1.643,0.782,1.972l11.666,5.045c0.189,0.082,0.393,0.123,0.595,0.123
		c0.188,0,0.375-0.035,0.553-0.105c0.37-0.146,0.666-0.434,0.824-0.799l9.258-21.407l9.258,21.407
		c0.245,0.566,0.797,0.905,1.378,0.905c0.198,0,0.4-0.04,0.594-0.124l11.666-5.045c0.365-0.158,0.653-0.455,0.799-0.824
		c0.146-0.37,0.14-0.783-0.018-1.148L58.239,53.109z M61.62,13.512c0.302-0.302,1.579-1.46,6.849-5.596
		c0.31-0.245,0.653-0.313,0.942-0.188c0.288,0.125,0.473,0.421,0.508,0.814c0.597,6.674,0.627,8.396,0.614,8.823L56.657,49.451
		L51.368,37.22L61.62,13.512z M38.317,91.86l-8.912-3.854L42.809,57.01l5.289,12.231L38.317,91.86z M61.149,91.86L28.934,17.365
		c-0.013-0.427,0.017-2.149,0.614-8.823c0.035-0.393,0.22-0.689,0.508-0.814c0.289-0.124,0.632-0.057,0.942,0.188
		c5.27,4.136,6.546,5.293,6.849,5.596l32.215,74.495L61.149,91.86z"/>
</g>
</svg>
